<svg width="182" height="25" viewBox="0 0 182 25" fill="none" xmlns="http://www.w3.org/2000/svg">
<g clip-path="url(#clip0_5131_37)">
<path d="M21.2346 0.5H3.44996C1.5467 0.5 0 2.00381 0 3.85428V15.3132L7.60823 7.91597L12.3447 12.5211L23.6872 1.49785C23.0608 0.88415 22.1935 0.5 21.2346 0.5Z" fill="#22C96A"/>
<path d="M17.0764 17.1311L12.3399 12.526L1.02637 23.5305C1.64794 24.1301 2.50561 24.5002 3.45001 24.5002H21.2347C23.1379 24.5002 24.6846 22.9964 24.6846 21.146V9.73389L17.0764 17.1311Z" fill="white"/>
<path d="M17.0764 17.1311L24.6846 9.73384V3.85448C24.6846 2.93627 24.304 2.10238 23.6872 1.49805L12.3447 12.526L17.0812 17.1311H17.0764Z" fill="black"/>
<path d="M7.60823 7.92041L0 15.3176V21.1455C0 22.0777 0.395108 22.921 1.02632 23.53L12.3447 12.5255L7.60823 7.92041Z" fill="black"/>
<path d="M28.3273 24.0876L38.6242 0.56543H43.4956L53.7877 24.0876H48.261L46.0638 18.85H35.9066L33.7095 24.0876H28.3225H28.3273ZM37.8003 14.3105H44.1846L40.9949 6.73525L37.8051 14.3105H37.8003Z" fill="white"/>
<path d="M63.5739 24.4201C60.6684 24.4201 58.0376 23.5207 55.6814 21.717L57.9123 18.3815C59.9264 19.8056 61.8586 20.5177 63.7088 20.5177C65.1736 20.5177 65.906 20.0492 65.906 19.117C65.906 19.0045 65.8867 18.8968 65.853 18.7844C65.8193 18.6719 65.7566 18.5736 65.6651 18.4845C65.5735 18.3955 65.4772 18.3112 65.3712 18.2316C65.27 18.1566 65.1303 18.077 64.9616 17.9973C64.7881 17.9224 64.6388 17.8521 64.5135 17.7959C64.3882 17.7397 64.2099 17.6741 63.9835 17.5944C63.7522 17.5148 63.5595 17.4539 63.4004 17.4117C63.2414 17.3696 63.0246 17.3087 62.75 17.229C62.4753 17.1494 62.2585 17.0885 62.0995 17.0463C61.3237 16.8215 60.6636 16.5966 60.1239 16.3623C59.5843 16.1281 59.0205 15.8049 58.4279 15.3926C57.8304 14.9803 57.3823 14.4603 57.0739 13.8232C56.7655 13.1908 56.6113 12.4506 56.6113 11.6026C56.6113 9.84585 57.2522 8.46385 58.5339 7.45194C59.8156 6.44004 61.4153 5.93408 63.3378 5.93408C65.8096 5.93408 68.0936 6.62274 70.1992 8.00474L68.2092 11.5089C66.2626 10.3987 64.605 9.84117 63.2318 9.84117C61.9501 9.84117 61.3093 10.2768 61.3093 11.1435C61.3093 11.7432 62.3597 12.3897 64.4653 13.0783C64.7159 13.1673 64.9134 13.2329 65.0483 13.2798C65.6651 13.4812 66.1903 13.6686 66.6288 13.8466C67.0624 14.0247 67.5539 14.2683 68.1032 14.5821C68.6525 14.896 69.091 15.224 69.4234 15.5659C69.7559 15.9126 70.0354 16.3483 70.2618 16.8824C70.4883 17.4164 70.6039 18.0067 70.6039 18.6485C70.6039 20.5599 69.9583 22.0028 68.6669 22.9679C67.3756 23.9376 65.6747 24.4201 63.5739 24.4201Z" fill="white"/>
<path d="M80.655 24.4201C77.7495 24.4201 75.1186 23.5207 72.7625 21.717L74.9934 18.3815C77.0074 19.8056 78.9396 20.5177 80.7899 20.5177C82.2547 20.5177 82.9871 20.0492 82.9871 19.117C82.9871 19.0045 82.9678 18.8968 82.9341 18.7844C82.9003 18.6719 82.8377 18.5736 82.7461 18.4845C82.6546 18.3955 82.5582 18.3112 82.4522 18.2316C82.351 18.1566 82.2113 18.077 82.0427 17.9973C81.8692 17.9224 81.7198 17.8521 81.5946 17.7959C81.4693 17.7397 81.291 17.6741 81.0645 17.5944C80.8333 17.5148 80.6405 17.4539 80.4815 17.4117C80.3225 17.3696 80.1057 17.3087 79.831 17.229C79.5564 17.1494 79.3395 17.0885 79.1805 17.0463C78.4048 16.8215 77.7447 16.5966 77.205 16.3623C76.6653 16.1281 76.1016 15.8049 75.5089 15.3926C74.9115 14.9803 74.4633 14.4603 74.155 13.8232C73.8466 13.1908 73.6924 12.4506 73.6924 11.6026C73.6924 9.84585 74.3332 8.46385 75.6149 7.45194C76.8966 6.44004 78.4963 5.93408 80.4189 5.93408C82.8907 5.93408 85.1746 6.62274 87.2802 8.00474L85.2902 11.5089C83.3436 10.3987 81.6861 9.84117 80.3129 9.84117C79.0312 9.84117 78.3903 10.2768 78.3903 11.1435C78.3903 11.7432 79.4407 12.3897 81.5464 13.0783C81.7969 13.1673 81.9945 13.2329 82.1294 13.2798C82.7461 13.4812 83.2713 13.6686 83.7098 13.8466C84.1435 14.0247 84.6349 14.2683 85.1842 14.5821C85.7335 14.896 86.172 15.224 86.5045 15.5659C86.837 15.9126 87.1164 16.3483 87.3429 16.8824C87.5694 17.4164 87.685 18.0067 87.685 18.6485C87.685 20.5599 87.0393 22.0028 85.748 22.9679C84.4567 23.9329 82.7558 24.4201 80.655 24.4201Z" fill="white"/>
<path d="M99.8708 24.4859C97.081 24.4859 94.7778 23.6239 92.9757 21.8999C91.1688 20.1759 90.2629 17.9366 90.2629 15.1773C90.2629 12.5725 91.1206 10.3707 92.836 8.57176C94.5513 6.77281 96.7244 5.86865 99.3552 5.86865C102.261 5.86865 104.477 6.80092 106.014 8.67014C107.546 10.5394 108.313 12.8396 108.313 15.5755C108.313 15.8425 108.289 16.2875 108.245 16.9106H95.4475C95.6981 18.0443 96.2136 18.911 96.9894 19.5107C97.7652 20.1103 98.7481 20.4101 99.9383 20.4101C101.562 20.4101 103.046 19.7964 104.4 18.5737L107.387 21.141C105.532 23.3662 103.032 24.4765 99.8708 24.4765V24.4859ZM95.3752 13.7437H103.234C103.075 12.5866 102.656 11.6637 101.981 10.975C101.307 10.2864 100.43 9.9397 99.3552 9.9397C98.2807 9.9397 97.4279 10.2817 96.7292 10.9563C96.0305 11.6356 95.5776 12.5632 95.3752 13.7437Z" fill="white"/>
<path d="M117.978 24.3876C116.263 24.3876 114.943 23.9848 114.013 23.1696C113.087 22.3591 112.625 20.9725 112.625 19.0142V10.5395H110.428V6.20143H112.625V1.63379H117.838V6.20611H122.161V10.5442H117.838V18.185C117.838 19.3422 118.397 19.9184 119.52 19.9184C120.436 19.9184 121.293 19.7076 122.093 19.2859V23.357C120.903 24.0457 119.53 24.3923 117.978 24.3923V24.3876Z" fill="white"/>
<path d="M126.805 24.0874V0.733887H136.62C139.458 0.733887 141.699 1.47876 143.347 2.96851C144.995 4.45827 145.819 6.42586 145.819 8.87131C145.819 11.476 144.903 13.4905 143.072 14.9287C141.241 16.3622 138.919 17.079 136.105 17.079H132.091V24.0827H126.805V24.0874ZM132.091 12.5114H136.278C137.584 12.5114 138.606 12.1787 139.348 11.5088C140.09 10.8436 140.461 9.97222 140.461 8.90878C140.461 7.77507 140.085 6.90371 139.328 6.29001C138.572 5.6763 137.521 5.37179 136.172 5.37179H132.091V12.5114Z" fill="white"/>
<path d="M148.903 24.0877V6.20597H154.116V9.80855C155.306 7.07265 157.262 5.76092 159.985 5.87336V11.1765H159.71C157.927 11.1765 156.545 11.7059 155.576 12.7599C154.603 13.8187 154.116 15.3881 154.116 17.4822V24.0877H148.903Z" fill="white"/>
<path d="M179.133 21.7825C177.225 23.5861 174.85 24.4856 172.012 24.4856C169.174 24.4856 166.813 23.5908 164.924 21.8012C163.035 20.0116 162.091 17.8051 162.091 15.1817C162.091 12.5582 163.045 10.3751 164.958 8.57615C166.866 6.77252 169.241 5.87305 172.079 5.87305C174.917 5.87305 177.278 6.76784 179.162 8.55741C181.051 10.347 181.995 12.5535 181.995 15.1817C181.995 17.8098 181.041 19.9835 179.128 21.7872L179.133 21.7825ZM172.084 20.1147C173.525 20.1147 174.681 19.6415 175.548 18.6952C176.416 17.7489 176.854 16.5777 176.854 15.177C176.854 13.7762 176.401 12.6566 175.5 11.6915C174.599 10.7265 173.438 10.2392 172.016 10.2392C170.595 10.2392 169.419 10.7124 168.552 11.6587C167.685 12.605 167.246 13.7762 167.246 15.177C167.246 16.5777 167.699 17.6974 168.6 18.6624C169.506 19.6322 170.662 20.1147 172.084 20.1147Z" fill="white"/>
</g>
<defs>
<clipPath id="clip0_5131_37">
<rect width="182" height="24" fill="white" transform="translate(0 0.5)"/>
</clipPath>
</defs>
</svg>
